<mxfile host="app.diagrams.net" modified="2020-09-15T06:11:33.595Z" agent="5.0 (Macintosh; Intel Mac OS X 10_12_6) AppleWebKit/537.36 (KHTML, like Gecko) Chrome/84.0.4147.125 Safari/537.36" etag="KdwO3zHr9b9qO_y27d5O" version="13.0.1" type="github">
  <diagram id="C5RBs43oDa-KdzZeNtuy" name="Page-1">
    <mxGraphModel dx="2489" dy="1891" grid="1" gridSize="10" guides="1" tooltips="1" connect="1" arrows="1" fold="1" page="1" pageScale="1" pageWidth="827" pageHeight="1169" math="0" shadow="0">
      <root>
        <mxCell id="WIyWlLk6GJQsqaUBKTNV-0" />
        <mxCell id="WIyWlLk6GJQsqaUBKTNV-1" parent="WIyWlLk6GJQsqaUBKTNV-0" />
        <mxCell id="qKsI8oJo5IMxg4WIA3i2-0" value="" style="endArrow=diamondThin;endFill=1;endSize=24;html=1;fontSize=11;entryX=1.005;entryY=0.744;entryDx=0;entryDy=0;entryPerimeter=0;exitX=-0.006;exitY=0.567;exitDx=0;exitDy=0;exitPerimeter=0;" parent="WIyWlLk6GJQsqaUBKTNV-1" source="zkfFHV4jXpPFQw0GAbJ--18" target="zkfFHV4jXpPFQw0GAbJ--1" edge="1">
          <mxGeometry width="160" relative="1" as="geometry">
            <mxPoint x="380" y="166" as="sourcePoint" />
            <mxPoint x="270" y="165.596" as="targetPoint" />
            <Array as="points" />
          </mxGeometry>
        </mxCell>
        <mxCell id="qKsI8oJo5IMxg4WIA3i2-4" value="1" style="edgeLabel;html=1;align=center;verticalAlign=middle;resizable=0;points=[];fontSize=13;" parent="qKsI8oJo5IMxg4WIA3i2-0" vertex="1" connectable="0">
          <mxGeometry x="0.4693" y="-4" relative="1" as="geometry">
            <mxPoint x="-4.03" y="-8.27" as="offset" />
          </mxGeometry>
        </mxCell>
        <mxCell id="qKsI8oJo5IMxg4WIA3i2-8" value="*" style="edgeLabel;html=1;align=center;verticalAlign=middle;resizable=0;points=[];fontSize=13;" parent="qKsI8oJo5IMxg4WIA3i2-0" vertex="1" connectable="0">
          <mxGeometry x="-0.4218" y="-1" relative="1" as="geometry">
            <mxPoint x="8.799999999999999" y="-9.71" as="offset" />
          </mxGeometry>
        </mxCell>
        <mxCell id="qKsI8oJo5IMxg4WIA3i2-51" value="*&lt;span style=&quot;font-family: monospace ; font-size: 0px&quot;&gt;%3CmxGraphModel%3E%3Croot%3E%3CmxCell%20id%3D%220%22%2F%3E%3CmxCell%20id%3D%221%22%20parent%3D%220%22%2F%3E%3CmxCell%20id%3D%222%22%20value%3D%221%22%20style%3D%22text%3Bhtml%3D1%3Balign%3Dcenter%3BverticalAlign%3Dmiddle%3Bresizable%3D0%3Bpoints%3D%5B%5D%3Bautosize%3D1%3BfontSize%3D13%3B%22%20vertex%3D%221%22%20parent%3D%221%22%3E%3CmxGeometry%20x%3D%22658%22%20y%3D%22100%22%20width%3D%2220%22%20height%3D%2220%22%20as%3D%22geometry%22%2F%3E%3C%2FmxCell%3E%3C%2Froot%3E%3C%2FmxGraphModel%3E&lt;/span&gt;" style="text;html=1;align=center;verticalAlign=middle;resizable=0;points=[];autosize=1;fontSize=13;" parent="WIyWlLk6GJQsqaUBKTNV-1" vertex="1">
          <mxGeometry x="670" y="135" width="20" height="30" as="geometry" />
        </mxCell>
        <mxCell id="qKsI8oJo5IMxg4WIA3i2-52" value="*" style="text;html=1;align=center;verticalAlign=middle;resizable=0;points=[];autosize=1;fontSize=13;" parent="WIyWlLk6GJQsqaUBKTNV-1" vertex="1">
          <mxGeometry x="670" y="260" width="20" height="20" as="geometry" />
        </mxCell>
        <mxCell id="qKsI8oJo5IMxg4WIA3i2-53" value="1" style="text;html=1;align=center;verticalAlign=middle;resizable=0;points=[];autosize=1;fontSize=13;" parent="WIyWlLk6GJQsqaUBKTNV-1" vertex="1">
          <mxGeometry x="720" y="140" width="20" height="20" as="geometry" />
        </mxCell>
        <mxCell id="qKsI8oJo5IMxg4WIA3i2-54" value="1" style="text;html=1;align=center;verticalAlign=middle;resizable=0;points=[];autosize=1;fontSize=13;" parent="WIyWlLk6GJQsqaUBKTNV-1" vertex="1">
          <mxGeometry x="720" y="260" width="20" height="20" as="geometry" />
        </mxCell>
        <mxCell id="qKsI8oJo5IMxg4WIA3i2-22" value="ArrivalAirport" style="swimlane;fontStyle=0;align=center;verticalAlign=top;childLayout=stackLayout;horizontal=1;startSize=26;horizontalStack=0;resizeParent=1;resizeParentMax=0;resizeLast=0;collapsible=1;marginBottom=0;fontSize=13;" parent="WIyWlLk6GJQsqaUBKTNV-1" vertex="1">
          <mxGeometry x="740" y="250" width="250" height="86" as="geometry" />
        </mxCell>
        <mxCell id="qKsI8oJo5IMxg4WIA3i2-24" value="" style="line;strokeWidth=1;fillColor=none;align=left;verticalAlign=middle;spacingTop=-1;spacingLeft=3;spacingRight=3;rotatable=0;labelPosition=right;points=[];portConstraint=eastwest;" parent="qKsI8oJo5IMxg4WIA3i2-22" vertex="1">
          <mxGeometry y="26" width="250" height="8" as="geometry" />
        </mxCell>
        <mxCell id="qKsI8oJo5IMxg4WIA3i2-25" value="+ coordinateFlight() : void&#xa;+ arrival(flight: Flight) : void&#xa;&#xa;&#xa;" style="text;strokeColor=none;fillColor=none;align=left;verticalAlign=top;spacingLeft=4;spacingRight=4;overflow=hidden;rotatable=0;points=[[0,0.5],[1,0.5]];portConstraint=eastwest;" parent="qKsI8oJo5IMxg4WIA3i2-22" vertex="1">
          <mxGeometry y="34" width="250" height="52" as="geometry" />
        </mxCell>
        <mxCell id="zkfFHV4jXpPFQw0GAbJ--17" value="Flight" style="swimlane;fontStyle=0;align=center;verticalAlign=top;childLayout=stackLayout;horizontal=1;startSize=26;horizontalStack=0;resizeParent=1;resizeLast=0;collapsible=1;marginBottom=0;rounded=0;shadow=0;strokeWidth=1;" parent="WIyWlLk6GJQsqaUBKTNV-1" vertex="1">
          <mxGeometry x="380" y="90" width="290" height="210" as="geometry">
            <mxRectangle x="498" y="50" width="160" height="26" as="alternateBounds" />
          </mxGeometry>
        </mxCell>
        <mxCell id="zkfFHV4jXpPFQw0GAbJ--18" value="- number : int&#xa;- airline:Â Airline&#xa;- passengerCount: int" style="text;align=left;verticalAlign=top;spacingLeft=4;spacingRight=4;overflow=hidden;rotatable=0;points=[[0,0.5],[1,0.5]];portConstraint=eastwest;" parent="zkfFHV4jXpPFQw0GAbJ--17" vertex="1">
          <mxGeometry y="26" width="290" height="84" as="geometry" />
        </mxCell>
        <mxCell id="zkfFHV4jXpPFQw0GAbJ--23" value="" style="line;html=1;strokeWidth=1;align=left;verticalAlign=middle;spacingTop=-1;spacingLeft=3;spacingRight=3;rotatable=0;labelPosition=right;points=[];portConstraint=eastwest;" parent="zkfFHV4jXpPFQw0GAbJ--17" vertex="1">
          <mxGeometry y="110" width="290" height="8" as="geometry" />
        </mxCell>
        <mxCell id="qKsI8oJo5IMxg4WIA3i2-104" value="+ registerPassenger(passenger: Passenger): void&#xa;+ isFull() : boolean" style="text;align=left;verticalAlign=top;spacingLeft=4;spacingRight=4;overflow=hidden;rotatable=0;points=[[0,0.5],[1,0.5]];portConstraint=eastwest;" parent="zkfFHV4jXpPFQw0GAbJ--17" vertex="1">
          <mxGeometry y="118" width="290" height="80" as="geometry" />
        </mxCell>
        <mxCell id="zkfFHV4jXpPFQw0GAbJ--0" value="Airline" style="swimlane;fontStyle=0;align=center;verticalAlign=top;childLayout=stackLayout;horizontal=1;startSize=26;horizontalStack=0;resizeParent=1;resizeLast=0;collapsible=1;marginBottom=0;rounded=0;shadow=0;strokeWidth=1;" parent="WIyWlLk6GJQsqaUBKTNV-1" vertex="1">
          <mxGeometry x="70" y="90" width="200" height="178" as="geometry">
            <mxRectangle x="230" y="140" width="160" height="26" as="alternateBounds" />
          </mxGeometry>
        </mxCell>
        <mxCell id="zkfFHV4jXpPFQw0GAbJ--1" value="- name: String&#xa;- fullName: String&#xa;- description: String&#xa;" style="text;align=left;verticalAlign=top;spacingLeft=4;spacingRight=4;overflow=hidden;rotatable=0;points=[[0,0.5],[1,0.5]];portConstraint=eastwest;" parent="zkfFHV4jXpPFQw0GAbJ--0" vertex="1">
          <mxGeometry y="26" width="200" height="64" as="geometry" />
        </mxCell>
        <mxCell id="zkfFHV4jXpPFQw0GAbJ--4" value="" style="line;html=1;strokeWidth=1;align=left;verticalAlign=middle;spacingTop=-1;spacingLeft=3;spacingRight=3;rotatable=0;labelPosition=right;points=[];portConstraint=eastwest;" parent="zkfFHV4jXpPFQw0GAbJ--0" vertex="1">
          <mxGeometry y="90" width="200" height="8" as="geometry" />
        </mxCell>
        <mxCell id="zkfFHV4jXpPFQw0GAbJ--5" value="+ registerFlight(Flight: int) : void&#xa;+ nullifyFlight(Flight: int) : void" style="text;align=left;verticalAlign=top;spacingLeft=4;spacingRight=4;overflow=hidden;rotatable=0;points=[[0,0.5],[1,0.5]];portConstraint=eastwest;" parent="zkfFHV4jXpPFQw0GAbJ--0" vertex="1">
          <mxGeometry y="98" width="200" height="80" as="geometry" />
        </mxCell>
        <mxCell id="qKsI8oJo5IMxg4WIA3i2-67" value="Extends" style="endArrow=block;endSize=16;endFill=0;html=1;fontSize=13;exitX=0.363;exitY=1;exitDx=0;exitDy=0;exitPerimeter=0;entryX=0.5;entryY=0;entryDx=0;entryDy=0;edgeStyle=elbowEdgeStyle;elbow=vertical;" parent="WIyWlLk6GJQsqaUBKTNV-1" source="qKsI8oJo5IMxg4WIA3i2-66" target="qKsI8oJo5IMxg4WIA3i2-55" edge="1">
          <mxGeometry width="160" relative="1" as="geometry">
            <mxPoint x="380" y="750" as="sourcePoint" />
            <mxPoint x="540" y="750" as="targetPoint" />
            <Array as="points">
              <mxPoint x="220" y="930" />
            </Array>
          </mxGeometry>
        </mxCell>
        <mxCell id="qKsI8oJo5IMxg4WIA3i2-68" value="Extends" style="endArrow=block;endSize=16;endFill=0;html=1;fontSize=13;exitX=0.556;exitY=1.035;exitDx=0;exitDy=0;exitPerimeter=0;entryX=0.5;entryY=0;entryDx=0;entryDy=0;edgeStyle=elbowEdgeStyle;elbow=vertical;" parent="WIyWlLk6GJQsqaUBKTNV-1" source="qKsI8oJo5IMxg4WIA3i2-62" target="qKsI8oJo5IMxg4WIA3i2-55" edge="1">
          <mxGeometry width="160" relative="1" as="geometry">
            <mxPoint x="508.0799999999999" y="694" as="sourcePoint" />
            <mxPoint x="320" y="790" as="targetPoint" />
            <Array as="points">
              <mxPoint x="610" y="930" />
            </Array>
          </mxGeometry>
        </mxCell>
        <mxCell id="qKsI8oJo5IMxg4WIA3i2-63" value="Pilot" style="swimlane;fontStyle=0;align=center;verticalAlign=top;childLayout=stackLayout;horizontal=1;startSize=26;horizontalStack=0;resizeParent=1;resizeParentMax=0;resizeLast=0;collapsible=1;marginBottom=0;fontSize=13;" parent="WIyWlLk6GJQsqaUBKTNV-1" vertex="1">
          <mxGeometry x="-30" y="430" width="240" height="194" as="geometry" />
        </mxCell>
        <mxCell id="qKsI8oJo5IMxg4WIA3i2-64" value="- airline:Â Â Airline&#xa;- pilotID: int&#xa;- flightPilotNumber: int" style="text;strokeColor=none;fillColor=none;align=left;verticalAlign=top;spacingLeft=4;spacingRight=4;overflow=hidden;rotatable=0;points=[[0,0.5],[1,0.5]];portConstraint=eastwest;" parent="qKsI8oJo5IMxg4WIA3i2-63" vertex="1">
          <mxGeometry y="26" width="240" height="74" as="geometry" />
        </mxCell>
        <mxCell id="qKsI8oJo5IMxg4WIA3i2-65" value="" style="line;strokeWidth=1;fillColor=none;align=left;verticalAlign=middle;spacingTop=-1;spacingLeft=3;spacingRight=3;rotatable=0;labelPosition=right;points=[];portConstraint=eastwest;" parent="qKsI8oJo5IMxg4WIA3i2-63" vertex="1">
          <mxGeometry y="100" width="240" height="8" as="geometry" />
        </mxCell>
        <mxCell id="qKsI8oJo5IMxg4WIA3i2-66" value="+ operateFlight(flight:Â FlightÂ ) : void&#xa;+ finishOperation() : void" style="text;strokeColor=none;fillColor=none;align=left;verticalAlign=top;spacingLeft=4;spacingRight=4;overflow=hidden;rotatable=0;points=[[0,0.5],[1,0.5]];portConstraint=eastwest;" parent="qKsI8oJo5IMxg4WIA3i2-63" vertex="1">
          <mxGeometry y="108" width="240" height="86" as="geometry" />
        </mxCell>
        <mxCell id="qKsI8oJo5IMxg4WIA3i2-69" value="1" style="endArrow=open;html=1;endSize=12;startArrow=diamondThin;startSize=14;startFill=0;edgeStyle=orthogonalEdgeStyle;align=left;verticalAlign=bottom;fontSize=13;" parent="WIyWlLk6GJQsqaUBKTNV-1" edge="1">
          <mxGeometry x="-0.625" y="-20" relative="1" as="geometry">
            <mxPoint x="160" y="270" as="sourcePoint" />
            <mxPoint x="160" y="430" as="targetPoint" />
            <mxPoint as="offset" />
          </mxGeometry>
        </mxCell>
        <mxCell id="qKsI8oJo5IMxg4WIA3i2-70" value="*" style="text;html=1;align=center;verticalAlign=middle;resizable=0;points=[];autosize=1;fontSize=13;" parent="WIyWlLk6GJQsqaUBKTNV-1" vertex="1">
          <mxGeometry x="130" y="400" width="20" height="20" as="geometry" />
        </mxCell>
        <mxCell id="qKsI8oJo5IMxg4WIA3i2-74" value="" style="endArrow=none;html=1;edgeStyle=orthogonalEdgeStyle;fontSize=13;exitX=0.941;exitY=-0.007;exitDx=0;exitDy=0;exitPerimeter=0;" parent="WIyWlLk6GJQsqaUBKTNV-1" source="qKsI8oJo5IMxg4WIA3i2-63" edge="1">
          <mxGeometry relative="1" as="geometry">
            <mxPoint x="668" y="290.00400000000013" as="sourcePoint" />
            <mxPoint x="380" y="290" as="targetPoint" />
            <Array as="points">
              <mxPoint x="196" y="290" />
            </Array>
          </mxGeometry>
        </mxCell>
        <mxCell id="qKsI8oJo5IMxg4WIA3i2-75" value="2" style="text;html=1;align=center;verticalAlign=middle;resizable=0;points=[];autosize=1;fontSize=13;" parent="WIyWlLk6GJQsqaUBKTNV-1" vertex="1">
          <mxGeometry x="200" y="410" width="20" height="20" as="geometry" />
        </mxCell>
        <mxCell id="qKsI8oJo5IMxg4WIA3i2-76" value="1" style="text;html=1;align=center;verticalAlign=middle;resizable=0;points=[];autosize=1;fontSize=13;" parent="WIyWlLk6GJQsqaUBKTNV-1" vertex="1">
          <mxGeometry x="350" y="268" width="20" height="20" as="geometry" />
        </mxCell>
        <mxCell id="qKsI8oJo5IMxg4WIA3i2-87" value="Here I chose aggregation because Flight should only belongs to one single Airline, and should not be shared with others" style="shape=note;whiteSpace=wrap;html=1;size=14;verticalAlign=top;align=left;spacingTop=-6;fontSize=13;" parent="WIyWlLk6GJQsqaUBKTNV-1" vertex="1">
          <mxGeometry x="270" y="-50" width="170" height="100" as="geometry" />
        </mxCell>
        <mxCell id="qKsI8oJo5IMxg4WIA3i2-88" value="" style="endArrow=none;dashed=1;html=1;fontSize=13;exitX=0.5;exitY=1;exitDx=0;exitDy=0;exitPerimeter=0;" parent="WIyWlLk6GJQsqaUBKTNV-1" source="qKsI8oJo5IMxg4WIA3i2-87" edge="1">
          <mxGeometry width="50" height="50" relative="1" as="geometry">
            <mxPoint x="420" as="sourcePoint" />
            <mxPoint x="330" y="160" as="targetPoint" />
          </mxGeometry>
        </mxCell>
        <mxCell id="qKsI8oJo5IMxg4WIA3i2-83" value="Plane" style="swimlane;fontStyle=0;align=center;verticalAlign=top;childLayout=stackLayout;horizontal=1;startSize=26;horizontalStack=0;resizeParent=1;resizeParentMax=0;resizeLast=0;collapsible=1;marginBottom=0;fontSize=13;" parent="WIyWlLk6GJQsqaUBKTNV-1" vertex="1">
          <mxGeometry x="290" y="400" width="210" height="224" as="geometry" />
        </mxCell>
        <mxCell id="qKsI8oJo5IMxg4WIA3i2-84" value="- capacity: int&#xa;- occupiedSeat: int&#xa;- /openSeat: int" style="text;strokeColor=none;fillColor=none;align=left;verticalAlign=top;spacingLeft=4;spacingRight=4;overflow=hidden;rotatable=0;points=[[0,0.5],[1,0.5]];portConstraint=eastwest;" parent="qKsI8oJo5IMxg4WIA3i2-83" vertex="1">
          <mxGeometry y="26" width="210" height="104" as="geometry" />
        </mxCell>
        <mxCell id="qKsI8oJo5IMxg4WIA3i2-85" value="" style="line;strokeWidth=1;fillColor=none;align=left;verticalAlign=middle;spacingTop=-1;spacingLeft=3;spacingRight=3;rotatable=0;labelPosition=right;points=[];portConstraint=eastwest;" parent="qKsI8oJo5IMxg4WIA3i2-83" vertex="1">
          <mxGeometry y="130" width="210" height="8" as="geometry" />
        </mxCell>
        <mxCell id="qKsI8oJo5IMxg4WIA3i2-86" value="+ assignSeat(passenger: Passenger,&#xa;seatRow: SeatRow,&#xa;seatPosition: SeatPosition): boolean&#xa;+ isFull() : boolean" style="text;strokeColor=none;fillColor=none;align=left;verticalAlign=top;spacingLeft=4;spacingRight=4;overflow=hidden;rotatable=0;points=[[0,0.5],[1,0.5]];portConstraint=eastwest;" parent="qKsI8oJo5IMxg4WIA3i2-83" vertex="1">
          <mxGeometry y="138" width="210" height="86" as="geometry" />
        </mxCell>
        <mxCell id="qKsI8oJo5IMxg4WIA3i2-90" value="" style="endArrow=diamondThin;endFill=1;endSize=24;html=1;fontSize=11;" parent="WIyWlLk6GJQsqaUBKTNV-1" edge="1">
          <mxGeometry width="160" relative="1" as="geometry">
            <mxPoint x="450" y="400" as="sourcePoint" />
            <mxPoint x="450" y="330" as="targetPoint" />
            <Array as="points">
              <mxPoint x="450" y="310" />
            </Array>
          </mxGeometry>
        </mxCell>
        <mxCell id="qKsI8oJo5IMxg4WIA3i2-91" value="1" style="edgeLabel;html=1;align=center;verticalAlign=middle;resizable=0;points=[];fontSize=13;" parent="qKsI8oJo5IMxg4WIA3i2-90" vertex="1" connectable="0">
          <mxGeometry x="0.4693" y="-4" relative="1" as="geometry">
            <mxPoint x="5.999999999999999" y="10.8" as="offset" />
          </mxGeometry>
        </mxCell>
        <mxCell id="qKsI8oJo5IMxg4WIA3i2-93" value="1" style="text;html=1;align=center;verticalAlign=middle;resizable=0;points=[];autosize=1;fontSize=13;" parent="WIyWlLk6GJQsqaUBKTNV-1" vertex="1">
          <mxGeometry x="450" y="380" width="20" height="20" as="geometry" />
        </mxCell>
        <mxCell id="qKsI8oJo5IMxg4WIA3i2-95" value="In reality, a flight might have more than one plane, but here it is 1-to-1 based on hw description" style="shape=note;whiteSpace=wrap;html=1;size=14;verticalAlign=top;align=left;spacingTop=-6;fontSize=13;" parent="WIyWlLk6GJQsqaUBKTNV-1" vertex="1">
          <mxGeometry x="263" y="310" width="150.96" height="70" as="geometry" />
        </mxCell>
        <mxCell id="qKsI8oJo5IMxg4WIA3i2-96" value="" style="endArrow=none;dashed=1;html=1;fontSize=13;entryX=0.004;entryY=0.614;entryDx=0;entryDy=0;entryPerimeter=0;exitX=1.001;exitY=0.734;exitDx=0;exitDy=0;exitPerimeter=0;" parent="WIyWlLk6GJQsqaUBKTNV-1" source="qKsI8oJo5IMxg4WIA3i2-95" edge="1">
          <mxGeometry width="50" height="50" relative="1" as="geometry">
            <mxPoint x="389.04" y="350" as="sourcePoint" />
            <mxPoint x="450.00000000000006" y="361.43600000000015" as="targetPoint" />
          </mxGeometry>
        </mxCell>
        <mxCell id="qKsI8oJo5IMxg4WIA3i2-59" value="Passenger" style="swimlane;fontStyle=0;align=center;verticalAlign=top;childLayout=stackLayout;horizontal=1;startSize=26;horizontalStack=0;resizeParent=1;resizeParentMax=0;resizeLast=0;collapsible=1;marginBottom=0;fontSize=13;" parent="WIyWlLk6GJQsqaUBKTNV-1" vertex="1">
          <mxGeometry x="590" y="440" width="210" height="224" as="geometry" />
        </mxCell>
        <mxCell id="qKsI8oJo5IMxg4WIA3i2-60" value="- passengerID: int&#xa;- flight: Flight" style="text;strokeColor=none;fillColor=none;align=left;verticalAlign=top;spacingLeft=4;spacingRight=4;overflow=hidden;rotatable=0;points=[[0,0.5],[1,0.5]];portConstraint=eastwest;" parent="qKsI8oJo5IMxg4WIA3i2-59" vertex="1">
          <mxGeometry y="26" width="210" height="104" as="geometry" />
        </mxCell>
        <mxCell id="qKsI8oJo5IMxg4WIA3i2-61" value="" style="line;strokeWidth=1;fillColor=none;align=left;verticalAlign=middle;spacingTop=-1;spacingLeft=3;spacingRight=3;rotatable=0;labelPosition=right;points=[];portConstraint=eastwest;" parent="qKsI8oJo5IMxg4WIA3i2-59" vertex="1">
          <mxGeometry y="130" width="210" height="8" as="geometry" />
        </mxCell>
        <mxCell id="qKsI8oJo5IMxg4WIA3i2-62" value="+ bookFlight(flight: Flight): type" style="text;strokeColor=none;fillColor=none;align=left;verticalAlign=top;spacingLeft=4;spacingRight=4;overflow=hidden;rotatable=0;points=[[0,0.5],[1,0.5]];portConstraint=eastwest;" parent="qKsI8oJo5IMxg4WIA3i2-59" vertex="1">
          <mxGeometry y="138" width="210" height="86" as="geometry" />
        </mxCell>
        <mxCell id="qKsI8oJo5IMxg4WIA3i2-105" value="Extends" style="endArrow=block;endSize=16;endFill=0;html=1;fontSize=13;entryX=-0.008;entryY=0.424;entryDx=0;entryDy=0;entryPerimeter=0;exitX=0.998;exitY=0;exitDx=0;exitDy=0;exitPerimeter=0;" parent="WIyWlLk6GJQsqaUBKTNV-1" source="qKsI8oJo5IMxg4WIA3i2-21" target="qKsI8oJo5IMxg4WIA3i2-10" edge="1">
          <mxGeometry width="160" relative="1" as="geometry">
            <mxPoint x="990" y="100" as="sourcePoint" />
            <mxPoint x="1150" y="100" as="targetPoint" />
          </mxGeometry>
        </mxCell>
        <mxCell id="qKsI8oJo5IMxg4WIA3i2-106" value="Extends" style="endArrow=block;endSize=16;endFill=0;html=1;fontSize=13;exitX=1.01;exitY=0.069;exitDx=0;exitDy=0;exitPerimeter=0;" parent="WIyWlLk6GJQsqaUBKTNV-1" source="qKsI8oJo5IMxg4WIA3i2-25" edge="1">
          <mxGeometry width="160" relative="1" as="geometry">
            <mxPoint x="990" y="317.23" as="sourcePoint" />
            <mxPoint x="1088" y="220" as="targetPoint" />
          </mxGeometry>
        </mxCell>
        <mxCell id="qKsI8oJo5IMxg4WIA3i2-10" value="&#xa;Airport" style="swimlane;fontStyle=0;align=center;verticalAlign=top;childLayout=stackLayout;horizontal=1;startSize=56;horizontalStack=0;resizeParent=1;resizeParentMax=0;resizeLast=0;collapsible=1;marginBottom=0;fontSize=13;" parent="WIyWlLk6GJQsqaUBKTNV-1" vertex="1">
          <mxGeometry x="1090" y="114" width="219" height="154" as="geometry" />
        </mxCell>
        <mxCell id="qKsI8oJo5IMxg4WIA3i2-23" value="- aiportCode: String&#xa;- city: String&#xa;- date: String&#xa;- time: String" style="text;strokeColor=none;fillColor=none;align=left;verticalAlign=top;spacingLeft=4;spacingRight=4;overflow=hidden;rotatable=0;points=[[0,0.5],[1,0.5]];portConstraint=eastwest;" parent="qKsI8oJo5IMxg4WIA3i2-10" vertex="1">
          <mxGeometry y="56" width="219" height="64" as="geometry" />
        </mxCell>
        <mxCell id="qKsI8oJo5IMxg4WIA3i2-107" value="" style="line;strokeWidth=1;fillColor=none;align=left;verticalAlign=middle;spacingTop=-1;spacingLeft=3;spacingRight=3;rotatable=0;labelPosition=right;points=[];portConstraint=eastwest;fontSize=13;" parent="qKsI8oJo5IMxg4WIA3i2-10" vertex="1">
          <mxGeometry y="120" width="219" height="8" as="geometry" />
        </mxCell>
        <mxCell id="qKsI8oJo5IMxg4WIA3i2-13" value="+ coordinateFlight() : void" style="text;strokeColor=none;fillColor=none;align=left;verticalAlign=top;spacingLeft=4;spacingRight=4;overflow=hidden;rotatable=0;points=[[0,0.5],[1,0.5]];portConstraint=eastwest;" parent="qKsI8oJo5IMxg4WIA3i2-10" vertex="1">
          <mxGeometry y="128" width="219" height="26" as="geometry" />
        </mxCell>
        <mxCell id="qKsI8oJo5IMxg4WIA3i2-18" value="DepartureAirport" style="swimlane;fontStyle=0;align=center;verticalAlign=top;childLayout=stackLayout;horizontal=1;startSize=26;horizontalStack=0;resizeParent=1;resizeParentMax=0;resizeLast=0;collapsible=1;marginBottom=0;fontSize=13;" parent="WIyWlLk6GJQsqaUBKTNV-1" vertex="1">
          <mxGeometry x="740" y="100" width="250" height="76" as="geometry" />
        </mxCell>
        <mxCell id="qKsI8oJo5IMxg4WIA3i2-20" value="" style="line;strokeWidth=1;fillColor=none;align=left;verticalAlign=middle;spacingTop=-1;spacingLeft=3;spacingRight=3;rotatable=0;labelPosition=right;points=[];portConstraint=eastwest;" parent="qKsI8oJo5IMxg4WIA3i2-18" vertex="1">
          <mxGeometry y="26" width="250" height="8" as="geometry" />
        </mxCell>
        <mxCell id="qKsI8oJo5IMxg4WIA3i2-21" value="+ coordinateFlight() : void&#xa;+ departure(flight: Flight) : void&#xa;" style="text;strokeColor=none;fillColor=none;align=left;verticalAlign=top;spacingLeft=4;spacingRight=4;overflow=hidden;rotatable=0;points=[[0,0.5],[1,0.5]];portConstraint=eastwest;" parent="qKsI8oJo5IMxg4WIA3i2-18" vertex="1">
          <mxGeometry y="34" width="250" height="42" as="geometry" />
        </mxCell>
        <mxCell id="qKsI8oJo5IMxg4WIA3i2-113" value="" style="endArrow=diamondThin;endFill=1;endSize=24;html=1;fontSize=11;" parent="WIyWlLk6GJQsqaUBKTNV-1" edge="1">
          <mxGeometry width="160" relative="1" as="geometry">
            <mxPoint x="390" y="700" as="sourcePoint" />
            <mxPoint x="389.6" y="650" as="targetPoint" />
            <Array as="points">
              <mxPoint x="389.6" y="630" />
            </Array>
          </mxGeometry>
        </mxCell>
        <mxCell id="qKsI8oJo5IMxg4WIA3i2-114" value="1" style="edgeLabel;html=1;align=center;verticalAlign=middle;resizable=0;points=[];fontSize=13;" parent="qKsI8oJo5IMxg4WIA3i2-113" vertex="1" connectable="0">
          <mxGeometry x="0.4693" y="-4" relative="1" as="geometry">
            <mxPoint x="5.999999999999999" y="10.8" as="offset" />
          </mxGeometry>
        </mxCell>
        <mxCell id="qKsI8oJo5IMxg4WIA3i2-115" value="n" style="text;html=1;align=center;verticalAlign=middle;resizable=0;points=[];autosize=1;fontSize=13;" parent="WIyWlLk6GJQsqaUBKTNV-1" vertex="1">
          <mxGeometry x="394" y="680" width="20" height="20" as="geometry" />
        </mxCell>
        <mxCell id="qKsI8oJo5IMxg4WIA3i2-125" value="" style="endArrow=diamondThin;endFill=1;endSize=24;html=1;fontSize=11;" parent="WIyWlLk6GJQsqaUBKTNV-1" edge="1">
          <mxGeometry width="160" relative="1" as="geometry">
            <mxPoint x="225.4" y="734" as="sourcePoint" />
            <mxPoint x="285.4" y="734" as="targetPoint" />
            <Array as="points">
              <mxPoint x="310" y="734" />
            </Array>
          </mxGeometry>
        </mxCell>
        <mxCell id="qKsI8oJo5IMxg4WIA3i2-126" value="1" style="edgeLabel;html=1;align=center;verticalAlign=middle;resizable=0;points=[];fontSize=13;" parent="qKsI8oJo5IMxg4WIA3i2-125" vertex="1" connectable="0">
          <mxGeometry x="0.4693" y="-4" relative="1" as="geometry">
            <mxPoint x="-10" y="10.8" as="offset" />
          </mxGeometry>
        </mxCell>
        <mxCell id="qKsI8oJo5IMxg4WIA3i2-127" value="n" style="text;html=1;align=center;verticalAlign=middle;resizable=0;points=[];autosize=1;fontSize=13;" parent="WIyWlLk6GJQsqaUBKTNV-1" vertex="1">
          <mxGeometry x="220" y="734" width="20" height="20" as="geometry" />
        </mxCell>
        <mxCell id="qKsI8oJo5IMxg4WIA3i2-122" value="SeatPosition" style="swimlane;fontStyle=0;align=center;verticalAlign=top;childLayout=stackLayout;horizontal=1;startSize=26;horizontalStack=0;resizeParent=1;resizeParentMax=0;resizeLast=0;collapsible=1;marginBottom=0;fontSize=13;" parent="WIyWlLk6GJQsqaUBKTNV-1" vertex="1">
          <mxGeometry x="70" y="710" width="150" height="114" as="geometry" />
        </mxCell>
        <mxCell id="qKsI8oJo5IMxg4WIA3i2-123" value="- passenger :Â  Passenger&#xa;- full: boolean" style="text;strokeColor=none;fillColor=none;align=left;verticalAlign=top;spacingLeft=4;spacingRight=4;overflow=hidden;rotatable=0;points=[[0,0.5],[1,0.5]];portConstraint=eastwest;" parent="qKsI8oJo5IMxg4WIA3i2-122" vertex="1">
          <mxGeometry y="26" width="150" height="44" as="geometry" />
        </mxCell>
        <mxCell id="qKsI8oJo5IMxg4WIA3i2-124" value="" style="line;strokeWidth=1;fillColor=none;align=left;verticalAlign=middle;spacingTop=-1;spacingLeft=3;spacingRight=3;rotatable=0;labelPosition=right;points=[];portConstraint=eastwest;" parent="qKsI8oJo5IMxg4WIA3i2-122" vertex="1">
          <mxGeometry y="70" width="150" height="10" as="geometry" />
        </mxCell>
        <mxCell id="qKsI8oJo5IMxg4WIA3i2-132" value="+ assign(passenger: &#xa;Passenger): boolean" style="text;strokeColor=none;fillColor=none;align=left;verticalAlign=top;spacingLeft=4;spacingRight=4;overflow=hidden;rotatable=0;points=[[0,0.5],[1,0.5]];portConstraint=eastwest;" parent="qKsI8oJo5IMxg4WIA3i2-122" vertex="1">
          <mxGeometry y="80" width="150" height="34" as="geometry" />
        </mxCell>
        <mxCell id="qKsI8oJo5IMxg4WIA3i2-109" value="SeatRow" style="swimlane;fontStyle=0;align=center;verticalAlign=top;childLayout=stackLayout;horizontal=1;startSize=26;horizontalStack=0;resizeParent=1;resizeParentMax=0;resizeLast=0;collapsible=1;marginBottom=0;fontSize=13;" parent="WIyWlLk6GJQsqaUBKTNV-1" vertex="1">
          <mxGeometry x="315" y="700" width="295" height="161" as="geometry" />
        </mxCell>
        <mxCell id="qKsI8oJo5IMxg4WIA3i2-110" value="- seatPosition: String[1..*]&#xa;- full: boolean" style="text;strokeColor=none;fillColor=none;align=left;verticalAlign=top;spacingLeft=4;spacingRight=4;overflow=hidden;rotatable=0;points=[[0,0.5],[1,0.5]];portConstraint=eastwest;" parent="qKsI8oJo5IMxg4WIA3i2-109" vertex="1">
          <mxGeometry y="26" width="295" height="34" as="geometry" />
        </mxCell>
        <mxCell id="qKsI8oJo5IMxg4WIA3i2-111" value="" style="line;strokeWidth=1;fillColor=none;align=left;verticalAlign=middle;spacingTop=-1;spacingLeft=3;spacingRight=3;rotatable=0;labelPosition=right;points=[];portConstraint=eastwest;" parent="qKsI8oJo5IMxg4WIA3i2-109" vertex="1">
          <mxGeometry y="60" width="295" height="101" as="geometry" />
        </mxCell>
        <mxCell id="qKsI8oJo5IMxg4WIA3i2-130" value="+ assignSeat(passenger: Passenger, &#xa;seatPosition: SeatPosition): boolean" style="text;strokeColor=none;fillColor=none;align=left;verticalAlign=top;spacingLeft=4;spacingRight=4;overflow=hidden;rotatable=0;points=[[0,0.5],[1,0.5]];portConstraint=eastwest;" parent="WIyWlLk6GJQsqaUBKTNV-1" vertex="1">
          <mxGeometry x="315" y="810" width="295" height="34" as="geometry" />
        </mxCell>
        <mxCell id="qKsI8oJo5IMxg4WIA3i2-133" value="" style="endArrow=none;html=1;edgeStyle=orthogonalEdgeStyle;fontSize=13;" parent="WIyWlLk6GJQsqaUBKTNV-1" edge="1">
          <mxGeometry relative="1" as="geometry">
            <mxPoint x="650" y="440" as="sourcePoint" />
            <mxPoint x="650" y="300" as="targetPoint" />
            <Array as="points">
              <mxPoint x="650" y="300" />
            </Array>
          </mxGeometry>
        </mxCell>
        <mxCell id="qKsI8oJo5IMxg4WIA3i2-134" value="1" style="text;html=1;align=center;verticalAlign=middle;resizable=0;points=[];autosize=1;fontSize=13;" parent="WIyWlLk6GJQsqaUBKTNV-1" vertex="1">
          <mxGeometry x="630" y="300" width="20" height="20" as="geometry" />
        </mxCell>
        <mxCell id="qKsI8oJo5IMxg4WIA3i2-136" value="*" style="text;html=1;align=center;verticalAlign=middle;resizable=0;points=[];autosize=1;fontSize=13;" parent="WIyWlLk6GJQsqaUBKTNV-1" vertex="1">
          <mxGeometry x="630" y="420" width="20" height="20" as="geometry" />
        </mxCell>
        <mxCell id="qKsI8oJo5IMxg4WIA3i2-137" value="" style="endArrow=none;html=1;edgeStyle=orthogonalEdgeStyle;fontSize=13;" parent="WIyWlLk6GJQsqaUBKTNV-1" edge="1">
          <mxGeometry relative="1" as="geometry">
            <mxPoint x="190" y="830" as="sourcePoint" />
            <mxPoint x="660" y="664" as="targetPoint" />
            <Array as="points">
              <mxPoint x="190" y="890" />
              <mxPoint x="660" y="890" />
            </Array>
          </mxGeometry>
        </mxCell>
        <mxCell id="qKsI8oJo5IMxg4WIA3i2-138" value="1" style="text;html=1;align=center;verticalAlign=middle;resizable=0;points=[];autosize=1;fontSize=13;" parent="WIyWlLk6GJQsqaUBKTNV-1" vertex="1">
          <mxGeometry x="190" y="830" width="20" height="20" as="geometry" />
        </mxCell>
        <mxCell id="qKsI8oJo5IMxg4WIA3i2-139" value="1" style="text;html=1;align=center;verticalAlign=middle;resizable=0;points=[];autosize=1;fontSize=13;" parent="WIyWlLk6GJQsqaUBKTNV-1" vertex="1">
          <mxGeometry x="640" y="664" width="20" height="20" as="geometry" />
        </mxCell>
        <mxCell id="qKsI8oJo5IMxg4WIA3i2-55" value="Human" style="swimlane;fontStyle=0;align=center;verticalAlign=top;childLayout=stackLayout;horizontal=1;startSize=26;horizontalStack=0;resizeParent=1;resizeParentMax=0;resizeLast=0;collapsible=1;marginBottom=0;fontSize=13;" parent="WIyWlLk6GJQsqaUBKTNV-1" vertex="1">
          <mxGeometry x="310" y="980" width="160" height="138" as="geometry" />
        </mxCell>
        <mxCell id="qKsI8oJo5IMxg4WIA3i2-56" value="- name: String&#xa;- ID: Long&#xa;- gender: String&#xa;- dob: String&#xa;- address: String" style="text;strokeColor=none;fillColor=none;align=left;verticalAlign=top;spacingLeft=4;spacingRight=4;overflow=hidden;rotatable=0;points=[[0,0.5],[1,0.5]];portConstraint=eastwest;" parent="qKsI8oJo5IMxg4WIA3i2-55" vertex="1">
          <mxGeometry y="26" width="160" height="104" as="geometry" />
        </mxCell>
        <mxCell id="qKsI8oJo5IMxg4WIA3i2-57" value="" style="line;strokeWidth=1;fillColor=none;align=left;verticalAlign=middle;spacingTop=-1;spacingLeft=3;spacingRight=3;rotatable=0;labelPosition=right;points=[];portConstraint=eastwest;" parent="qKsI8oJo5IMxg4WIA3i2-55" vertex="1">
          <mxGeometry y="130" width="160" height="8" as="geometry" />
        </mxCell>
        <mxCell id="qKsI8oJo5IMxg4WIA3i2-141" value="" style="endArrow=none;html=1;fontSize=13;" parent="WIyWlLk6GJQsqaUBKTNV-1" edge="1">
          <mxGeometry width="50" height="50" relative="1" as="geometry">
            <mxPoint x="670" y="277.5" as="sourcePoint" />
            <mxPoint x="740" y="277.5" as="targetPoint" />
          </mxGeometry>
        </mxCell>
        <mxCell id="qKsI8oJo5IMxg4WIA3i2-142" value="" style="endArrow=none;html=1;fontSize=13;" parent="WIyWlLk6GJQsqaUBKTNV-1" edge="1">
          <mxGeometry width="50" height="50" relative="1" as="geometry">
            <mxPoint x="670" y="160" as="sourcePoint" />
            <mxPoint x="740" y="160" as="targetPoint" />
          </mxGeometry>
        </mxCell>
        <mxCell id="ZN9rHZnhp5Q1TReqC5gg-0" value="n stands for a &lt;br&gt;constant number&amp;nbsp;&lt;br&gt;(maybe 42 because a plane usually have 42 row)" style="shape=note;whiteSpace=wrap;html=1;size=14;verticalAlign=top;align=left;spacingTop=-6;fontSize=13;" parent="WIyWlLk6GJQsqaUBKTNV-1" vertex="1">
          <mxGeometry x="-160.00000000000003" y="634" width="137.96" height="80" as="geometry" />
        </mxCell>
        <mxCell id="ZN9rHZnhp5Q1TReqC5gg-3" value="" style="endArrow=none;dashed=1;html=1;" parent="WIyWlLk6GJQsqaUBKTNV-1" edge="1">
          <mxGeometry width="50" height="50" relative="1" as="geometry">
            <mxPoint x="390" y="673.5" as="sourcePoint" />
            <mxPoint x="-20" y="674" as="targetPoint" />
          </mxGeometry>
        </mxCell>
        <mxCell id="ZN9rHZnhp5Q1TReqC5gg-4" value="n stands for a &lt;br&gt;constant number&amp;nbsp;&lt;br&gt;(maybe 6 because a row usually have 6 seats)" style="shape=note;whiteSpace=wrap;html=1;size=14;verticalAlign=top;align=left;spacingTop=-6;fontSize=13;" parent="WIyWlLk6GJQsqaUBKTNV-1" vertex="1">
          <mxGeometry x="-160.00000000000003" y="740.5" width="137.96" height="80" as="geometry" />
        </mxCell>
        <mxCell id="ZN9rHZnhp5Q1TReqC5gg-5" value="" style="endArrow=none;dashed=1;html=1;" parent="WIyWlLk6GJQsqaUBKTNV-1" edge="1">
          <mxGeometry width="50" height="50" relative="1" as="geometry">
            <mxPoint x="260" y="730" as="sourcePoint" />
            <mxPoint x="-20" y="790" as="targetPoint" />
            <Array as="points">
              <mxPoint x="260" y="700" />
              <mxPoint x="10" y="700" />
              <mxPoint x="10" y="790" />
            </Array>
          </mxGeometry>
        </mxCell>
      </root>
    </mxGraphModel>
  </diagram>
</mxfile>
